<svg width="32" height="32" xmlns="http://www.w3.org/2000/svg" fill="none" viewBox="0 0 256.36 295.12">
<defs>
<style>.cls-1{fill:#f18c25;}.cls-2{fill:#ebe0dd;}</style>
</defs>
<title>Ddswap</title>
<rect class="cls-1" y="248.88" width="46.24" height="46.24"/>
<path class="cls-2" d="M404.06,250A147.56,147.56,0,0,1,256.5,397.56H209.34V351.32H256.5a101.32,101.32,0,0,0,0-202.64H147.7V102.44H256.5A147.56,147.56,0,0,1,404.06,250Z" transform="translate(-147.7 -102.44)"/>
<path class="cls-2" d="M255.58,184.06H147.7V315.94H255.58a65.94,65.94,0,0,0,0-131.88Zm.13,85.63H194V230.31h61.76a19.69,19.69,0,1,1,0,39.38Z" transform="translate(-147.7 -102.44)"/>
</svg>